<!DOCTYPE svg PUBLIC "-//W3C//DTD SVG 1.1//EN" "http://www.w3.org/Graphics/SVG/1.1/DTD/svg11.dtd">
<!-- Uploaded to: SVG Repo, www.svgrepo.com, Transformed by: SVG Repo Mixer Tools -->
<svg fill="#ff4242" version="1.1" id="Capa_1" xmlns="http://www.w3.org/2000/svg" xmlns:xlink="http://www.w3.org/1999/xlink" width="256px" height="256px" viewBox="0 0 317.11 317.11" xml:space="preserve" stroke="#ff4242" stroke-width="0.0031711300000000003" transform="rotate(0)matrix(1, 0, 0, 1, 0, 0)">
<g id="SVGRepo_bgCarrier" stroke-width="0"/>
<g id="SVGRepo_tracerCarrier" stroke-linecap="round" stroke-linejoin="round"/>
<g id="SVGRepo_iconCarrier"> <g> <polygon points="291.927,136.019 291.927,181.092 317.113,181.092 306.509,157.293 317.113,136.019 "/> <polygon points="262.484,187.999 286.624,187.999 286.624,181.092 286.624,136.019 286.624,129.111 262.484,129.111 "/> <polygon points="25.187,181.092 25.187,136.019 0,136.019 10.604,157.956 0,181.092 "/> <polygon points="30.489,181.092 30.489,187.999 54.629,187.999 54.629,129.111 30.489,129.111 30.489,136.019 "/> <polygon points="59.932,123.809 59.932,126.46 59.932,129.111 59.932,187.999 59.932,190.65 59.932,193.302 59.932,199.826 257.182,199.826 257.182,193.302 257.182,190.65 257.182,187.999 257.182,129.111 257.182,126.46 257.182,123.809 257.182,117.287 59.932,117.287 "/> </g> </g>
</svg>